<svg width="25" height="25" viewBox="0 0 25 25" fill="none" xmlns="http://www.w3.org/2000/svg">
<g clip-path="url(#clip0_3511_17552)">
<rect x="0.996094" width="24.0034" height="24.0034" rx="12.0017" fill="white"/>
<rect width="16.669" height="16.669" transform="translate(4.66406 3.66797)" fill="white"/>
<path fill-rule="evenodd" clip-rule="evenodd" d="M6.66062 11.7239C5.91538 9.39714 6.78633 6.73773 9.22904 5.95082C10.5139 5.53617 11.9322 5.78065 13.0004 6.58424C14.011 5.80288 15.4813 5.53895 16.7648 5.95082C19.2075 6.73773 20.0841 9.39714 19.3395 11.7239C18.1796 15.4119 13.0004 18.2526 13.0004 18.2526C13.0004 18.2526 7.8594 15.4549 6.66062 11.7239Z" fill="#F01313" stroke="#F01313" stroke-width="1.12753" stroke-linecap="round" stroke-linejoin="round"/>
<path d="M15.7773 8.32227C16.5203 8.56253 17.0453 9.22567 17.1085 10.0041" stroke="white" stroke-width="1.12753" stroke-linecap="round" stroke-linejoin="round"/>
<path d="M31.7459 12.0019C31.7459 22.3571 23.3513 30.7518 12.996 30.7518C2.64071 30.7518 -5.75391 22.3571 -5.75391 12.0019C-5.75391 1.64657 2.64071 -6.74805 12.996 -6.74805C23.3513 -6.74805 31.7459 1.64657 31.7459 12.0019ZM-1.8338 12.0019C-1.8338 20.1921 4.80573 26.8317 12.996 26.8317C21.1863 26.8317 27.8258 20.1921 27.8258 12.0019C27.8258 3.81159 21.1863 -2.82794 12.996 -2.82794C4.80573 -2.82794 -1.8338 3.81159 -1.8338 12.0019Z" fill="#F01313"/>
</g>
<defs>
<clipPath id="clip0_3511_17552">
<rect x="0.996094" width="24.0034" height="24.0034" rx="12.0017" fill="white"/>
</clipPath>
</defs>
</svg>
