<svg width="40" height="40" viewBox="0 0 40 40" fill="none" xmlns="http://www.w3.org/2000/svg">
<path fill-rule="evenodd" clip-rule="evenodd" d="M30.1758 20C30.1758 20.4142 29.84 20.75 29.4258 20.75L11.4251 20.75C11.0109 20.75 10.6751 20.4142 10.6751 20C10.6751 19.5858 11.0109 19.25 11.4251 19.25L29.4258 19.25C29.84 19.25 30.1758 19.5858 30.1758 20Z" fill="#944C07"/>
<path fill-rule="evenodd" clip-rule="evenodd" d="M15.9059 26.5761C15.5877 26.8413 15.1148 26.7983 14.8496 26.4801L10.1162 20.8002C9.72985 20.3367 9.72986 19.6633 10.1162 19.1997L14.8496 13.5198C15.1148 13.2016 15.5877 13.1586 15.9059 13.4238C16.2241 13.689 16.2671 14.1619 16.0019 14.4801L11.4019 20L16.0019 25.5198C16.2671 25.838 16.2241 26.311 15.9059 26.5761Z" fill="#944C07"/>
</svg>
