<svg width="24" height="24" viewBox="0 0 24 24" fill="none" xmlns="http://www.w3.org/2000/svg">
<path fill-rule="evenodd" clip-rule="evenodd" d="M1.25 8.71289C1.25 7.74639 2.0335 6.96289 3 6.96289H21C21.9665 6.96289 22.75 7.74639 22.75 8.71289V20.9986C22.75 21.9651 21.9665 22.7486 21 22.7486H3C2.0335 22.7486 1.25 21.9651 1.25 20.9986V8.71289ZM3 8.46289C2.86193 8.46289 2.75 8.57482 2.75 8.71289V20.9986C2.75 21.1367 2.86193 21.2486 3 21.2486H21C21.1381 21.2486 21.25 21.1367 21.25 20.9986V8.71289C21.25 8.57482 21.1381 8.46289 21 8.46289H3Z" fill="#14142B"/>
<path fill-rule="evenodd" clip-rule="evenodd" d="M3.91172 2.21738C4.20816 1.6245 4.81412 1.25 5.47697 1.25H18.5266C19.1895 1.25 19.7954 1.6245 20.0919 2.21738L22.6003 7.23415C22.8828 7.79932 22.4719 8.46429 21.84 8.46429H2.1636C1.53173 8.46429 1.12075 7.79933 1.40333 7.23415L3.91172 2.21738ZM5.47697 2.75C5.38228 2.75 5.29571 2.8035 5.25336 2.8882L3.21532 6.96429H20.7883L18.7502 2.8882C18.7079 2.8035 18.6213 2.75 18.5266 2.75H5.47697Z" fill="#14142B"/>
<path fill-rule="evenodd" clip-rule="evenodd" d="M8.39453 8.71289C8.39453 7.74639 9.17803 6.96289 10.1445 6.96289H13.8588C14.8253 6.96289 15.6088 7.74639 15.6088 8.71289V12.4272C15.6088 13.3937 14.8253 14.1772 13.8588 14.1772H10.1445C9.17804 14.1772 8.39453 13.3937 8.39453 12.4272V8.71289ZM10.1445 8.46289C10.0065 8.46289 9.89453 8.57482 9.89453 8.71289V12.4272C9.89453 12.5652 10.0065 12.6772 10.1445 12.6772H13.8588C13.9969 12.6772 14.1088 12.5652 14.1088 12.4272V8.71289C14.1088 8.57482 13.9969 8.46289 13.8588 8.46289H10.1445Z" fill="#14142B"/>
</svg>
