<svg width="25" height="24" viewBox="0 0 25 24" fill="none" xmlns="http://www.w3.org/2000/svg">
<path fill-rule="evenodd" clip-rule="evenodd" d="M9.44784 3.00195C7.98136 3.00186 6.72975 4.06197 6.48852 5.50846L6.1747 7.39023C6.16666 7.43844 6.12495 7.47378 6.07607 7.47378H5.75C4.09315 7.47378 2.75 8.81692 2.75 10.4738V19.0007C2.75 20.6576 4.09314 22.0007 5.75 22.0007L19.7493 22.0007C21.4061 22.0007 22.7492 20.6576 22.7493 19.0009L22.7498 10.474C22.7499 8.81703 21.4067 7.47378 19.7498 7.47378H19.4484C19.3994 7.47378 19.3575 7.43817 19.3497 7.38972L19.0485 5.52412C18.8138 4.07076 17.5592 3.00244 16.087 3.00235L9.44784 3.00195Z" fill="#BF6814"/>
<path fill-rule="evenodd" clip-rule="evenodd" d="M9.44779 3.75195C8.34794 3.75189 7.40923 4.54696 7.2283 5.63184L6.91449 7.5136C6.84614 7.92342 6.49155 8.22378 6.07607 8.22378H5.75C4.50736 8.22378 3.5 9.23114 3.5 10.4738V19.0007C3.5 20.2433 4.50736 21.2507 5.75 21.2507L19.7493 21.2507C20.9919 21.2507 21.9992 20.2434 21.9993 19.0008L21.9998 10.4739C21.9999 9.23122 20.9925 8.22378 19.7498 8.22378H19.4484C19.0313 8.22378 18.6758 7.92108 18.6093 7.50928L18.3081 5.64368C18.132 4.55366 17.1911 3.75242 16.087 3.75235L9.44779 3.75195ZM5.74874 5.38509C6.05028 3.57697 7.61479 2.25184 9.44788 2.25195L16.0871 2.25235C17.9273 2.25246 19.4955 3.58786 19.7889 5.40456L20.0033 6.73221C21.9562 6.86254 23.4999 8.48802 23.4998 10.474L23.4993 19.0009C23.4992 21.0719 21.8203 22.7507 19.7493 22.7507L5.75 22.7507C3.67893 22.7507 2 21.0718 2 19.0007V10.4738C2 8.47847 3.55836 6.84712 5.52437 6.73045L5.74874 5.38509Z" fill="#BF6814"/>
<path d="M16.404 13.9618C16.404 15.9794 14.7684 17.6149 12.7508 17.6149C10.7332 17.6149 9.09766 15.9794 9.09766 13.9618C9.09766 11.9442 10.7332 10.3086 12.7508 10.3086C14.7684 10.3086 16.404 11.9442 16.404 13.9618Z" fill="#BF6814"/>
<path fill-rule="evenodd" clip-rule="evenodd" d="M12.7508 11.0586C11.1475 11.0586 9.84766 12.3584 9.84766 13.9618C9.84766 15.5652 11.1475 16.8649 12.7508 16.8649C14.3542 16.8649 15.654 15.5652 15.654 13.9618C15.654 12.3584 14.3542 11.0586 12.7508 11.0586ZM8.34766 13.9618C8.34766 11.53 10.319 9.55859 12.7508 9.55859C15.1826 9.55859 17.154 11.53 17.154 13.9618C17.154 16.3936 15.1826 18.3649 12.7508 18.3649C10.319 18.3649 8.34766 16.3936 8.34766 13.9618Z" fill="#E6E7FA"/>
</svg>
