<svg width="24" height="24" viewBox="0 0 24 24" fill="none" xmlns="http://www.w3.org/2000/svg">
<path fill-rule="evenodd" clip-rule="evenodd" d="M18.25 12C18.25 10.5661 17.8248 9.16438 17.0282 7.97212C16.2315 6.77986 15.0992 5.85061 13.7745 5.30188C12.4497 4.75314 10.992 4.60957 9.5856 4.88931C8.17923 5.16905 6.88741 5.85955 5.87348 6.87348C4.85955 7.88741 4.16905 9.17924 3.88931 10.5856C3.60956 11.992 3.75314 13.4497 4.30187 14.7745C4.85061 16.0992 5.77986 17.2315 6.97212 18.0282C8.16437 18.8248 9.56608 19.25 11 19.25C11.4142 19.25 11.75 19.5858 11.75 20C11.75 20.4142 11.4142 20.75 11 20.75C9.26941 20.75 7.57769 20.2368 6.13876 19.2754C4.69983 18.3139 3.57832 16.9473 2.91606 15.3485C2.25379 13.7496 2.08051 11.9903 2.41813 10.293C2.75575 8.59563 3.58911 7.03653 4.81282 5.81282C6.03653 4.58911 7.59563 3.75575 9.29296 3.41813C10.9903 3.08051 12.7496 3.25379 14.3485 3.91606C15.9473 4.57832 17.3139 5.69983 18.2754 7.13877C19.2368 8.5777 19.75 10.2694 19.75 12C19.75 12.4142 19.4142 12.75 19 12.75C18.5858 12.75 18.25 12.4142 18.25 12Z" fill="#14142B"/>
<path fill-rule="evenodd" clip-rule="evenodd" d="M22.5303 9.46967C22.8232 9.76256 22.8232 10.2374 22.5303 10.5303L19.8839 13.1768C19.3957 13.6649 18.6043 13.6649 18.1161 13.1768L15.4697 10.5303C15.1768 10.2374 15.1768 9.76256 15.4697 9.46967C15.7626 9.17678 16.2374 9.17678 16.5303 9.46967L19 11.9393L21.4697 9.46967C21.7626 9.17678 22.2374 9.17678 22.5303 9.46967Z" fill="#14142B"/>
<path fill-rule="evenodd" clip-rule="evenodd" d="M11.5 7.25C11.0858 7.25 10.75 7.58579 10.75 8L10.75 12.6395L8.53148 14.4143C8.20803 14.6731 8.15559 15.1451 8.41435 15.4685C8.67311 15.792 9.14508 15.8444 9.46852 15.5857L11.931 13.6157C12.1326 13.4544 12.25 13.2102 12.25 12.9519L12.25 8C12.25 7.58579 11.9142 7.25 11.5 7.25Z" fill="#14142B"/>
</svg>
