<svg width="24" height="24" viewBox="0 0 24 24" fill="none" xmlns="http://www.w3.org/2000/svg">
<path d="M12.0011 1.92773C12.824 1.92766 13.6155 2.24316 14.2127 2.80926C14.8099 3.37535 15.1672 4.14891 15.2111 4.97059L15.2154 5.14202H19.9297C20.0926 5.14207 20.2493 5.20394 20.3684 5.31514C20.4874 5.42633 20.5597 5.57856 20.5709 5.74106C20.582 5.90356 20.531 6.06421 20.4282 6.19056C20.3254 6.31691 20.1785 6.39953 20.0171 6.42173L19.9297 6.42773H19.022L17.9763 19.3303C17.911 20.1352 17.5452 20.8861 16.9515 21.4335C16.3578 21.981 15.5798 22.2849 14.7723 22.2849H9.22997C8.42241 22.2849 7.64442 21.981 7.05075 21.4335C6.45707 20.8861 6.09122 20.1352 6.02597 19.3303L4.9794 6.42773H4.07254C3.9172 6.42773 3.76711 6.37147 3.65003 6.26936C3.53296 6.16726 3.45681 6.02621 3.43569 5.87231L3.42969 5.78488C3.42969 5.62953 3.48595 5.47944 3.58806 5.36237C3.69017 5.24529 3.83121 5.16915 3.98512 5.14802L4.07254 5.14202H8.78683C8.78683 4.28954 9.12548 3.47197 9.72827 2.86918C10.3311 2.26638 11.1486 1.92773 12.0011 1.92773ZM17.7328 6.42773H6.2694L7.3074 19.2266C7.3466 19.7095 7.56615 20.16 7.92238 20.4885C8.27862 20.8169 8.74543 20.9992 9.22997 20.9992H14.7723C15.2568 20.9992 15.7236 20.8169 16.0798 20.4885C16.4361 20.16 16.6556 19.7095 16.6948 19.2266L17.732 6.42773H17.7328ZM10.0725 9.64202C10.2279 9.64203 10.378 9.69828 10.4951 9.80039C10.6121 9.9025 10.6883 10.0435 10.7094 10.1974L10.7154 10.2849V17.142C10.7154 17.3049 10.6535 17.4617 10.5423 17.5807C10.4311 17.6997 10.2789 17.7721 10.1164 17.7832C9.95386 17.7943 9.79321 17.7433 9.66686 17.6405C9.54051 17.5377 9.45789 17.3908 9.43569 17.2294L9.42969 17.142V10.2849C9.42969 10.1144 9.49742 9.95087 9.61798 9.83031C9.73853 9.70975 9.90205 9.64202 10.0725 9.64202ZM13.9297 9.64202C14.085 9.64203 14.2351 9.69828 14.3522 9.80039C14.4693 9.9025 14.5454 10.0435 14.5665 10.1974L14.5725 10.2849V17.142C14.5725 17.3049 14.5106 17.4617 14.3994 17.5807C14.2882 17.6997 14.136 17.7721 13.9735 17.7832C13.811 17.7943 13.6504 17.7433 13.524 17.6405C13.3977 17.5377 13.315 17.3908 13.2928 17.2294L13.2868 17.142V10.2849C13.2868 10.1144 13.3546 9.95087 13.4751 9.83031C13.5957 9.70975 13.7592 9.64202 13.9297 9.64202ZM12.0011 3.21345C11.5124 3.21339 11.042 3.39884 10.6848 3.73234C10.3276 4.06583 10.1103 4.52249 10.0768 5.01002L10.0725 5.14202H13.9297L13.9254 5.01002C13.892 4.52249 13.6747 4.06583 13.3175 3.73234C12.9603 3.39884 12.4898 3.21339 12.0011 3.21345Z" fill="#944C07"/>
</svg>
