<svg width="36" height="36" viewBox="0 0 36 36" fill="none" xmlns="http://www.w3.org/2000/svg">
<path fill-rule="evenodd" clip-rule="evenodd" d="M21.5177 11.1878L24.8173 14.4874C25.2241 14.8942 25.2241 15.5537 24.8173 15.9605L16.5352 24.243C16.4033 24.3749 16.2383 24.469 16.0576 24.5154L11.6192 25.6543C10.852 25.8512 10.1545 25.1536 10.3513 24.3864L11.4901 19.9479C11.5365 19.7672 11.6306 19.6022 11.7626 19.4702L20.0446 11.1878C20.4514 10.781 21.1109 10.781 21.5177 11.1878ZM20.7812 12.219L12.6867 20.3138L11.6496 24.356L15.6917 23.3187L23.7861 15.224L20.7812 12.219Z" fill="#08CC4B"/>
<path fill-rule="evenodd" clip-rule="evenodd" d="M21.0783 14.9287C21.241 15.0914 21.241 15.3552 21.0783 15.5179L16.0785 20.5179C15.9158 20.6807 15.652 20.6807 15.4892 20.5179C15.3265 20.3552 15.3265 20.0914 15.4892 19.9287L20.489 14.9287C20.6517 14.766 20.9156 14.766 21.0783 14.9287Z" fill="#08CC4B"/>
<path fill-rule="evenodd" clip-rule="evenodd" d="M13.8213 21.5966C13.984 21.4339 14.2478 21.4339 14.4105 21.5967L16.0771 23.2633C16.2398 23.426 16.2398 23.6899 16.0771 23.8526C15.9144 24.0153 15.6506 24.0153 15.4879 23.8526L13.8213 22.1859C13.6585 22.0232 13.6585 21.7594 13.8213 21.5966Z" fill="#08CC4B"/>
<path fill-rule="evenodd" clip-rule="evenodd" d="M22.5659 9.22602C22.81 8.98195 23.2057 8.98195 23.4498 9.22604L26.783 12.5594C27.027 12.8035 27.027 13.1992 26.7829 13.4433C26.5389 13.6873 26.1431 13.6873 25.8991 13.4432L22.5659 10.1099C22.3218 9.86582 22.3218 9.47009 22.5659 9.22602Z" fill="#08CC4B"/>
</svg>
