<svg width="24" height="24" viewBox="0 0 24 24" fill="none" xmlns="http://www.w3.org/2000/svg">
<path fill-rule="evenodd" clip-rule="evenodd" d="M1.24575 7.00195C1.24594 3.82631 3.82046 1.25211 6.99609 1.2523L16.9939 1.2529C20.1695 1.25309 22.7437 3.82761 22.7435 7.00325L22.7429 17.001C22.7427 20.1767 20.1682 22.7509 16.9926 22.7507L6.9948 22.7501C3.81916 22.7499 1.24495 20.1754 1.24514 16.9997L1.24575 7.00195ZM6.996 2.7523C4.64879 2.75216 2.74589 4.65483 2.74575 7.00204L2.74515 16.9998C2.745 19.347 4.64768 21.2499 6.99489 21.2501L16.9927 21.2507C19.3399 21.2508 21.2428 19.3482 21.2429 17.001L21.2435 7.00316C21.2437 4.65595 19.341 2.75304 16.9938 2.7529L6.996 2.7523Z" fill="#14142B"/>
<path fill-rule="evenodd" clip-rule="evenodd" d="M11.1194 9.06056C10.9123 9.24461 10.7461 9.53689 10.7461 10.0001C10.7461 10.4143 10.4103 10.7501 9.99609 10.7501C9.58188 10.7501 9.24609 10.4143 9.24609 10.0001C9.24609 9.12989 9.57986 8.42211 10.1228 7.93947C10.652 7.46909 11.3363 7.25 11.9961 7.25C12.6559 7.25 13.3402 7.46909 13.8694 7.93943C14.4123 8.42205 14.7461 9.12978 14.7461 9.99994C14.7461 10.6416 14.5804 11.1317 14.2922 11.5319C14.069 11.842 13.7762 12.0808 13.5674 12.2512C13.5348 12.2779 13.5042 12.3028 13.4762 12.3261C13.2442 12.5194 13.0846 12.6748 12.967 12.8904C12.852 13.1013 12.7461 13.4302 12.7461 14.0001C12.7461 14.4143 12.4103 14.7501 11.9961 14.7501C11.5819 14.7501 11.2461 14.4143 11.2461 14.0001C11.2461 13.2366 11.3902 12.6487 11.6502 12.1721C11.9076 11.7001 12.2479 11.3971 12.5159 11.1738C12.5594 11.1376 12.5997 11.1043 12.6371 11.0733C12.8526 10.8953 12.9754 10.7937 13.0749 10.6555C13.1618 10.5348 13.2461 10.3583 13.2461 9.99994C13.2461 9.53684 13.0799 9.2446 12.8728 9.06056C12.652 8.86425 12.3363 8.75 11.9961 8.75C11.6559 8.75 11.3402 8.86424 11.1194 9.06056Z" fill="#14142B"/>
<path d="M12.9961 16C12.9961 16.5523 12.5484 17 11.9961 17C11.4438 17 10.9961 16.5523 10.9961 16C10.9961 15.4477 11.4438 15 11.9961 15C12.5484 15 12.9961 15.4477 12.9961 16Z" fill="#14142B"/>
</svg>
