<svg width="24" height="24" viewBox="0 0 24 24" fill="none" xmlns="http://www.w3.org/2000/svg">
<path fill-rule="evenodd" clip-rule="evenodd" d="M16.7578 11.998C16.7578 12.4123 16.422 12.748 16.0078 12.748L3.00781 12.748C2.5936 12.748 2.25781 12.4123 2.25781 11.998C2.25781 11.5838 2.5936 11.248 3.00781 11.248L16.0078 11.248C16.422 11.248 16.7578 11.5838 16.7578 11.998Z" fill="#F01313"/>
<path fill-rule="evenodd" clip-rule="evenodd" d="M7.53033 17.5284C7.23744 17.8213 6.76256 17.8213 6.46967 17.5284L1.54038 12.5991C1.20844 12.2671 1.20843 11.729 1.54038 11.397L6.46967 6.46772C6.76256 6.17482 7.23744 6.17482 7.53033 6.46772C7.82322 6.76061 7.82322 7.23548 7.53033 7.52838L3.06066 11.998L7.53033 16.4677C7.82322 16.7606 7.82322 17.2355 7.53033 17.5284Z" fill="#F01313"/>
<path fill-rule="evenodd" clip-rule="evenodd" d="M14.5885 2.66602C14.5885 2.2518 14.9243 1.91602 15.3385 1.91602H19.9052C20.3747 1.91602 20.7552 2.29658 20.7552 2.76602V21.2327C20.7552 21.7021 20.3747 22.0827 19.9052 22.0827H14.6719C14.2577 22.0827 13.9219 21.7469 13.9219 21.3327C13.9219 20.9185 14.2577 20.5827 14.6719 20.5827H19.2552V3.41602H15.3385C14.9243 3.41602 14.5885 3.08023 14.5885 2.66602Z" fill="#F01313"/>
</svg>
