<svg width="24" height="24" viewBox="0 0 24 24" fill="none" xmlns="http://www.w3.org/2000/svg">
<path fill-rule="evenodd" clip-rule="evenodd" d="M2.5 12.5C2.5 10.4289 4.17893 8.75 6.25 8.75H17.7504C19.8214 8.75 21.5004 10.4289 21.5004 12.5V19.0003C21.5004 21.0713 19.8214 22.7503 17.7504 22.7503H6.25C4.17893 22.7503 2.5 21.0713 2.5 19.0003V12.5ZM6.25 10.25C5.00736 10.25 4 11.2574 4 12.5V19.0003C4 20.2429 5.00736 21.2503 6.25 21.2503H17.7504C18.993 21.2503 20.0004 20.2429 20.0004 19.0003V12.5C20.0004 11.2574 18.993 10.25 17.7504 10.25H6.25Z" fill="#14142B"/>
<path fill-rule="evenodd" clip-rule="evenodd" d="M9.08777 3.91498C8.30919 4.6788 7.75 5.85809 7.75 7.51854V9.50016C7.75 9.91437 7.41421 10.2502 7 10.2502C6.58579 10.2502 6.25 9.91437 6.25 9.50016V7.51854C6.25 5.4999 6.94084 3.91991 8.0373 2.84422C9.12562 1.77652 10.569 1.24998 12.0001 1.25C13.4312 1.25002 14.8746 1.7766 15.9629 2.84431C17.0594 3.92 17.7502 5.49999 17.7502 7.51859V9.50016C17.7502 9.91437 17.4144 10.2502 17.0002 10.2502C16.586 10.2502 16.2502 9.91437 16.2502 9.50016V7.51859C16.2502 5.85819 15.691 4.6789 14.9124 3.91506C14.1257 3.14323 13.069 2.75001 12.0001 2.75C10.9312 2.74999 9.87448 3.14317 9.08777 3.91498Z" fill="#14142B"/>
<path fill-rule="evenodd" clip-rule="evenodd" d="M12 17.75C11.5858 17.75 11.25 17.4142 11.25 17L11.25 14.4999C11.25 14.0857 11.5858 13.7499 12 13.7499C12.4142 13.7499 12.75 14.0857 12.75 14.4999L12.75 17C12.75 17.4142 12.4142 17.75 12 17.75Z" fill="#14142B"/>
</svg>
