<svg width="24" height="25" viewBox="0 0 24 25" fill="none" xmlns="http://www.w3.org/2000/svg">
<g clip-path="url(#clip0_3150_14043)">
<path d="M12 4.5C10.4178 4.5 8.87104 4.96919 7.55544 5.84824C6.23985 6.72729 5.21447 7.97672 4.60897 9.43853C4.00347 10.9003 3.84504 12.5089 4.15372 14.0607C4.4624 15.6126 5.22433 17.038 6.34315 18.1569C7.46197 19.2757 8.88743 20.0376 10.4393 20.3463C11.9911 20.655 13.5997 20.4965 15.0615 19.891C16.5233 19.2855 17.7727 18.2602 18.6518 16.9446C19.5308 15.629 20 14.0823 20 12.5C19.9977 10.379 19.1541 8.34547 17.6543 6.84568C16.1545 5.34589 14.121 4.50229 12 4.5ZM12 18.5C10.8133 18.5 9.65328 18.1481 8.66658 17.4888C7.67989 16.8295 6.91085 15.8925 6.45673 14.7961C6.0026 13.6997 5.88378 12.4933 6.11529 11.3295C6.3468 10.1656 6.91825 9.09647 7.75736 8.25736C8.59648 7.41824 9.66558 6.8468 10.8295 6.61529C11.9933 6.38378 13.1997 6.5026 14.2961 6.95672C15.3925 7.41085 16.3295 8.17988 16.9888 9.16658C17.6481 10.1533 18 11.3133 18 12.5C17.9982 14.0908 17.3655 15.6159 16.2407 16.7407C15.1159 17.8655 13.5908 18.4982 12 18.5Z" fill="#FAF1E8"/>
<path d="M12 18.5C10.8133 18.5 9.65328 18.1481 8.66658 17.4888C7.67989 16.8295 6.91085 15.8925 6.45673 14.7961C6.0026 13.6997 5.88378 12.4933 6.11529 11.3295C6.3468 10.1656 6.91825 9.09647 7.75736 8.25736C8.59648 7.41824 9.66558 6.8468 10.8295 6.61529C11.9933 6.38378 13.1997 6.5026 14.2961 6.95672C15.3925 7.41085 16.3295 8.17988 16.9888 9.16658C17.6481 10.1533 18 11.3133 18 12.5C17.9982 14.0908 17.3655 15.6159 16.2407 16.7407C15.1159 17.8655 13.5908 18.4982 12 18.5Z" fill="#FAF1E8"/>
</g>
<rect x="0.5" y="1" width="23" height="23" rx="11.5" stroke="#FAF1E8"/>
<defs>
<clipPath id="clip0_3150_14043">
<rect width="16" height="16" fill="white" transform="translate(4 4.5)"/>
</clipPath>
</defs>
</svg>
