<svg width="19" height="18" viewBox="0 0 19 18" fill="none" xmlns="http://www.w3.org/2000/svg">
<g clip-path="url(#clip0_3283_8584)">
<path d="M18.5 7.50006C18.5 7.44532 18.494 7.39073 18.482 7.33731L17.507 2.93631C17.3258 2.10099 16.863 1.35335 16.1961 0.818749C15.5292 0.284149 14.6987 -0.00490229 13.844 6.29166e-05H5.156C4.30179 -0.00421231 3.47205 0.285154 2.80575 0.819698C2.13945 1.35424 1.67705 2.1015 1.496 2.93631L0.518001 7.33731C0.506007 7.39073 0.49997 7.44532 0.500001 7.50006V8.25006C0.499396 8.98026 0.766192 9.6854 1.25 10.2323V14.2501C1.25119 15.2443 1.64666 16.1974 2.34967 16.9004C3.05267 17.6034 4.0058 17.9989 5 18.0001H14C14.9942 17.9989 15.9473 17.6034 16.6503 16.9004C17.3533 16.1974 17.7488 15.2443 17.75 14.2501V10.2323C18.2338 9.6854 18.5006 8.98026 18.5 8.25006V7.50006ZM2 7.58181L2.96 3.26181C3.06878 2.761 3.34626 2.31274 3.74601 1.99205C4.14576 1.67135 4.64352 1.49767 5.156 1.50006H5.75V3.75006C5.75 3.94898 5.82902 4.13974 5.96967 4.28039C6.11032 4.42105 6.30109 4.50006 6.5 4.50006C6.69891 4.50006 6.88968 4.42105 7.03033 4.28039C7.17098 4.13974 7.25 3.94898 7.25 3.75006V1.50006H11.75V3.75006C11.75 3.94898 11.829 4.13974 11.9697 4.28039C12.1103 4.42105 12.3011 4.50006 12.5 4.50006C12.6989 4.50006 12.8897 4.42105 13.0303 4.28039C13.171 4.13974 13.25 3.94898 13.25 3.75006V1.50006H13.844C14.3565 1.49767 14.8542 1.67135 15.254 1.99205C15.6537 2.31274 15.9312 2.761 16.04 3.26181L17 7.58181V8.25006C17 8.64789 16.842 9.02942 16.5607 9.31072C16.2794 9.59203 15.8978 9.75006 15.5 9.75006H14.75C14.3522 9.75006 13.9706 9.59203 13.6893 9.31072C13.408 9.02942 13.25 8.64789 13.25 8.25006C13.25 8.05115 13.171 7.86039 13.0303 7.71973C12.8897 7.57908 12.6989 7.50006 12.5 7.50006C12.3011 7.50006 12.1103 7.57908 11.9697 7.71973C11.829 7.86039 11.75 8.05115 11.75 8.25006C11.75 8.64789 11.592 9.02942 11.3107 9.31072C11.0294 9.59203 10.6478 9.75006 10.25 9.75006H8.75C8.35218 9.75006 7.97065 9.59203 7.68934 9.31072C7.40804 9.02942 7.25 8.64789 7.25 8.25006C7.25 8.05115 7.17098 7.86039 7.03033 7.71973C6.88968 7.57908 6.69891 7.50006 6.5 7.50006C6.30109 7.50006 6.11032 7.57908 5.96967 7.71973C5.82902 7.86039 5.75 8.05115 5.75 8.25006C5.75 8.64789 5.59197 9.02942 5.31066 9.31072C5.02936 9.59203 4.64783 9.75006 4.25 9.75006H3.5C3.10218 9.75006 2.72065 9.59203 2.43934 9.31072C2.15804 9.02942 2 8.64789 2 8.25006V7.58181ZM14 16.5001H5C4.40326 16.5001 3.83097 16.263 3.40901 15.8411C2.98705 15.4191 2.75 14.8468 2.75 14.2501V11.1548C2.99495 11.2182 3.24697 11.2502 3.5 11.2501H4.25C4.67586 11.2503 5.09687 11.1596 5.48488 10.9841C5.87289 10.8086 6.21898 10.5523 6.5 10.2323C6.78103 10.5523 7.12711 10.8086 7.51512 10.9841C7.90314 11.1596 8.32414 11.2503 8.75 11.2501H10.25C10.6759 11.2503 11.0969 11.1596 11.4849 10.9841C11.8729 10.8086 12.219 10.5523 12.5 10.2323C12.781 10.5523 13.1271 10.8086 13.5151 10.9841C13.9031 11.1596 14.3241 11.2503 14.75 11.2501H15.5C15.753 11.2502 16.0051 11.2182 16.25 11.1548V14.2501C16.25 14.8468 16.0129 15.4191 15.591 15.8411C15.169 16.263 14.5967 16.5001 14 16.5001Z" fill="#944C07"/>
</g>
<defs>
<clipPath id="clip0_3283_8584">
<rect width="18" height="18" fill="white" transform="translate(0.5)"/>
</clipPath>
</defs>
</svg>
