<svg width="40" height="40" viewBox="0 0 40 40" fill="none" xmlns="http://www.w3.org/2000/svg">
<path d="M18.332 24.593H12.0312" stroke="#944C07" stroke-width="1.5" stroke-linecap="round" stroke-linejoin="round"/>
<path d="M21.1406 14.8997H27.4413" stroke="#944C07" stroke-width="1.5" stroke-linecap="round" stroke-linejoin="round"/>
<path fill-rule="evenodd" clip-rule="evenodd" d="M16.7263 14.8463C16.7263 13.5506 15.6681 12.5 14.3631 12.5C13.0582 12.5 12 13.5506 12 14.8463C12 16.1419 13.0582 17.1925 14.3631 17.1925C15.6681 17.1925 16.7263 16.1419 16.7263 14.8463Z" stroke="#944C07" stroke-width="1.5" stroke-linecap="round" stroke-linejoin="round"/>
<path fill-rule="evenodd" clip-rule="evenodd" d="M27.9997 24.5533C27.9997 23.2576 26.9424 22.207 25.6374 22.207C24.3316 22.207 23.2734 23.2576 23.2734 24.5533C23.2734 25.8489 24.3316 26.8995 25.6374 26.8995C26.9424 26.8995 27.9997 25.8489 27.9997 24.5533Z" stroke="#944C07" stroke-width="1.5" stroke-linecap="round" stroke-linejoin="round"/>
</svg>
