<svg width="24" height="25" viewBox="0 0 24 25" fill="none" xmlns="http://www.w3.org/2000/svg">
<path fill-rule="evenodd" clip-rule="evenodd" d="M12 3.17188C6.89137 3.17188 2.75 7.31324 2.75 12.4219C2.75 17.5305 6.89137 21.6719 12 21.6719C17.1086 21.6719 21.25 17.5305 21.25 12.4219C21.25 7.31324 17.1086 3.17188 12 3.17188ZM1.25 12.4219C1.25 6.48481 6.06294 1.67188 12 1.67188C17.9371 1.67188 22.75 6.48481 22.75 12.4219C22.75 18.3589 17.9371 23.1719 12 23.1719C6.06294 23.1719 1.25 18.3589 1.25 12.4219Z" fill="#14142B"/>
<path fill-rule="evenodd" clip-rule="evenodd" d="M16.0211 8.96499C16.3525 9.21351 16.4196 9.68361 16.1711 10.015L11.9621 15.6269C11.633 16.0659 10.9804 16.0826 10.6291 15.6611L7.85354 12.3304C7.58837 12.0122 7.63136 11.5392 7.94957 11.2741C8.26778 11.0089 8.7407 11.0519 9.00587 11.3701L11.2553 14.0694L14.9711 9.11499C15.2196 8.78361 15.6897 8.71646 16.0211 8.96499Z" fill="#14142B"/>
</svg>
