<svg width="18" height="18" viewBox="0 0 18 18" fill="none" xmlns="http://www.w3.org/2000/svg">
<path fill-rule="evenodd" clip-rule="evenodd" d="M1.08594 6C1.08594 4.4467 2.34514 3.1875 3.89844 3.1875L14.0984 3.1875C15.6517 3.1875 16.9109 4.4467 16.9109 6V6.89985C16.9109 7.21059 16.659 7.4625 16.3483 7.4625C15.4992 7.4625 14.8108 8.15086 14.8108 9C14.8108 9.84914 15.4992 10.5375 16.3483 10.5375C16.6591 10.5375 16.9109 10.7895 16.9109 11.1001V12C16.9109 13.5533 15.6517 14.8125 14.0984 14.8125L3.89844 14.8125C2.34514 14.8125 1.08594 13.5533 1.08594 12V11.175C1.08594 10.8168 1.37363 10.5482 1.70375 10.5365C2.527 10.5075 3.18579 9.83058 3.18579 9C3.18579 8.16942 2.527 7.49247 1.70375 7.46347C1.37363 7.45185 1.08594 7.18324 1.08594 6.82501L1.08594 6ZM3.89844 4.3125C2.96646 4.3125 2.21094 5.06802 2.21094 6V6.39711C3.41131 6.6554 4.31079 7.72256 4.31079 9C4.31079 10.2774 3.41131 11.3446 2.21094 11.6029V12C2.21094 12.932 2.96646 13.6875 3.89844 13.6875L14.0984 13.6875C15.0304 13.6875 15.7859 12.932 15.7859 12V11.603C14.5856 11.3449 13.6858 10.2775 13.6858 9C13.6858 7.72247 14.5856 6.6551 15.7859 6.397V6C15.7859 5.06802 15.0304 4.3125 14.0984 4.3125L3.89844 4.3125Z" fill="#A7A7A7"/>
<path fill-rule="evenodd" clip-rule="evenodd" d="M11.1016 3.71289C11.4122 3.71289 11.6641 3.96473 11.6641 4.27539L11.6641 13.7254C11.6641 14.0361 11.4122 14.2879 11.1016 14.2879C10.7909 14.2879 10.5391 14.0361 10.5391 13.7254L10.5391 4.27539C10.5391 3.96473 10.7909 3.71289 11.1016 3.71289Z" fill="#A7A7A7"/>
</svg>
