<svg width="24" height="24" viewBox="0 0 24 24" fill="none" xmlns="http://www.w3.org/2000/svg">
<path fill-rule="evenodd" clip-rule="evenodd" d="M12.0006 2.75C10.0478 2.75 8.46484 4.33299 8.46484 6.28571C8.46484 8.23844 10.0478 9.82143 12.0006 9.82143C13.9533 9.82143 15.5363 8.23844 15.5363 6.28571C15.5363 4.33299 13.9533 2.75 12.0006 2.75ZM6.96484 6.28571C6.96484 3.50457 9.21941 1.25 12.0006 1.25C14.7817 1.25 17.0363 3.50457 17.0363 6.28571C17.0363 9.06686 14.7817 11.3214 12.0006 11.3214C9.21941 11.3214 6.96484 9.06686 6.96484 6.28571Z" fill="#14142B"/>
<path fill-rule="evenodd" clip-rule="evenodd" d="M4.30958 16.1661C5.86682 14.5023 8.39944 13.25 12.2857 13.25C16.172 13.25 18.7046 14.5023 20.2619 16.1661C21.7995 17.8088 22.3214 19.7847 22.3214 21.1429C22.3214 21.5571 21.9856 21.8929 21.5714 21.8929H3C2.58579 21.8929 2.25 21.5571 2.25 21.1429C2.25 19.7847 2.77196 17.8088 4.30958 16.1661ZM3.81378 20.3929H20.7576C20.6016 19.4301 20.14 18.2309 19.1667 17.1911C17.9383 15.8786 15.828 14.75 12.2857 14.75C8.74342 14.75 6.63318 15.8786 5.40471 17.1911C4.43143 18.2309 3.96986 19.4301 3.81378 20.3929Z" fill="#14142B"/>
</svg>
